<svg xmlns="http://www.w3.org/2000/svg" width="237.576" height="106.366" viewBox="0 0 237.576 106.366"><defs><style>.a{fill:#f6f7fb;}</style></defs><g transform="translate(-277.053 -128.956)"><g transform="translate(277.053 180.643)"><path class="a" d="M296.948,198.963l3.741-8a8.587,8.587,0,0,0,5.535,2.318,7.347,7.347,0,0,0,7.554-7.105c0-5.236-5.459-7.48-9.873-7.48-10.621,0-17.5,9.873-17.5,19.821,0,11.369,7.63,17.353,18.551,17.353,4.862,0,12.566-2.843,15.184-7.105v10.92a24.1,24.1,0,0,1-15.184,4.862c-16.306,0-27.9-9.649-27.9-26.553,0-15.408,11.07-28.05,26.852-28.05,10.7,0,19.223,6.509,19.223,16.232,0,9.05-7.629,15.857-16.531,15.857C303.756,202.03,299.193,200.758,296.948,198.963Z" transform="translate(-277.053 -169.941)"/><path class="a" d="M324.71,224.373c-4.937,0-8.153-4.487-8.153-9.125V170.594h8.526v43.533a2.716,2.716,0,0,0,2.993,2.693,4.637,4.637,0,0,0,3.067-1.2V222.5A10.664,10.664,0,0,1,324.71,224.373Z" transform="translate(-266.738 -169.77)"/><path class="a" d="M364.779,210.635v6.881a11.036,11.036,0,0,1-6.507,1.87,8,8,0,0,1-7.33-5.086,10.861,10.861,0,0,1-9.649,5.086c-8.378,0-13.763-6.806-13.763-14.884,0-8,5.385-14.811,13.763-14.811a10.974,10.974,0,0,1,8.825,3.889v-3.29h8.528V209.14a2.715,2.715,0,0,0,2.993,2.693A4.979,4.979,0,0,0,364.779,210.635Zm-14.661-3.216v-5.834a7.342,7.342,0,0,0-6.806-4.863,7.793,7.793,0,0,0,0,15.558A7.42,7.42,0,0,0,350.119,207.42Z" transform="translate(-263.872 -164.784)"/><path class="a" d="M356.952,218.012v-7.927a6.984,6.984,0,0,0,3.964,2.019,2.476,2.476,0,0,0,2.693-2.544c0-2.991-4.712-6.432-4.712-10.621,0-4.487,2.093-7.554,6.133-9.424l4.787,5.834a3.808,3.808,0,0,0-2.468,3.59c0,2.768,4.712,6.06,4.712,11.519,0,5.012-3.366,8.975-8.452,8.975A14.4,14.4,0,0,1,356.952,218.012Z" transform="translate(-256.19 -164.83)"/><path class="a" d="M370.713,218.012v-7.927a6.991,6.991,0,0,0,3.964,2.019,2.476,2.476,0,0,0,2.694-2.544c0-2.991-4.713-6.432-4.713-10.621,0-4.487,2.095-7.554,6.134-9.424l4.787,5.834a3.808,3.808,0,0,0-2.468,3.59c0,2.768,4.712,6.06,4.712,11.519,0,5.012-3.366,8.975-8.452,8.975A14.41,14.41,0,0,1,370.713,218.012Z" transform="translate(-252.597 -164.83)"/><path class="a" d="M413.769,204.592a14.885,14.885,0,1,1-14.884-14.959A14.924,14.924,0,0,1,413.769,204.592Zm-7.18,0v-.375a5.819,5.819,0,0,1-8.676-5.086,5.446,5.446,0,0,1,.449-2.244,7.69,7.69,0,0,0,.523,15.333A7.677,7.677,0,0,0,406.589,204.592Z" transform="translate(-249.127 -164.799)"/><path class="a" d="M443.106,210.635v6.881a10.967,10.967,0,0,1-6.433,1.87c-5.012,0-8.228-4.487-8.228-9.125v-9.35c0-2.244-1.2-4.188-3.666-4.188-2.841,0-4.487,2.319-5.086,5.236v16.755h-8.526V190.291h8.526v2.767a9,9,0,0,1,7.331-3.366c5.834,0,9.948,4.713,9.948,10.322v9.125a2.755,2.755,0,0,0,2.991,2.693A4.986,4.986,0,0,0,443.106,210.635Z" transform="translate(-242.033 -164.784)"/><path class="a" d="M473.15,210.635v6.881a11.036,11.036,0,0,1-6.507,1.87,8,8,0,0,1-7.33-5.086,10.859,10.859,0,0,1-9.649,5.086c-8.378,0-13.763-6.806-13.763-14.884,0-8,5.385-14.811,13.763-14.811a10.972,10.972,0,0,1,8.825,3.889v-3.29h8.528V209.14a2.716,2.716,0,0,0,2.993,2.693A4.979,4.979,0,0,0,473.15,210.635ZM458.49,207.42v-5.834a7.342,7.342,0,0,0-6.8-4.863,7.793,7.793,0,0,0,0,15.558A7.418,7.418,0,0,0,458.49,207.42Z" transform="translate(-235.574 -164.784)"/></g><g transform="translate(372.244 128.956)"><g transform="translate(27 20.964)"><path class="a" d="M409.09,179.028c.353.845.794,1.69,1.249,2.573.252.492.5.971.757,1.463l1.652,3.367-3.733.265c-.568.05-1.135.063-1.677.063a16.842,16.842,0,0,1-11.842-4.464,1.062,1.062,0,0,0-.34-.088c-.731-.088-1.463-.139-2.207-.189a31.672,31.672,0,0,1-3.67-.4c-5.524-1.047-9.8-3.733-12.409-7.592.076-.013.164-.025.252-.038.858-.114,1.728-.177,2.636-.252.164,0,.328-.013.5-.025.921-.063,1.854-.126,2.8-.24a15.817,15.817,0,0,0,7.163,3.191,27.843,27.843,0,0,0,3.065.328c.832.05,1.665.114,2.5.214a5.636,5.636,0,0,1,3.1,1.349v.013a11.165,11.165,0,0,0,5.763,2.926q-.208-.473-.416-.984c-1.223-3.115-.227-4.389,2.03-5.662a11.347,11.347,0,0,0,6.116-9.736c.378-5.562-1.715-8.967-4.452-11.022a12.68,12.68,0,0,0-2.131-1.324,18.251,18.251,0,0,0-4.918-1.6h-.013c-.782-.139-1.551-.252-2.3-.34a29.2,29.2,0,0,0-3.266-.189,21.357,21.357,0,0,0-9.9,2.3c-6.053,3.1-6.6,8.967-6.381,12.182a13.162,13.162,0,0,0,.719,3.582c-.832.05-1.7.114-2.573.214l-.681.076a8.5,8.5,0,0,0-1.791.441,18.3,18.3,0,0,1-.706-3.973c-.5-7.579,2.812-13.784,9.105-17.012,5.183-2.661,10.947-3.455,17.593-2.409.353.05.719.113,1.085.177a24.768,24.768,0,0,1,4.136,1.11c7.857,2.875,12.094,9.421,11.5,18.135A16.184,16.184,0,0,1,409.09,179.028Z" transform="translate(-373.943 -145.579)"/></g><path class="a" d="M400.374,147.218a24.768,24.768,0,0,0-4.136-1.11c-.366-.063-.731-.126-1.085-.177a23.471,23.471,0,0,1,.2,5.032.278.278,0,0,1-.013.1,18.251,18.251,0,0,1,4.918,1.6c.05-.454.1-.908.126-1.362s.05-.883.05-1.324A25.1,25.1,0,0,0,400.374,147.218Z" transform="translate(-341.405 -124.523)"/><path class="a" d="M406.471,155.5a18.251,18.251,0,0,1,4.918,1.6c-1.249,10.745-8.651,18.135-20.493,20.392-.744.139-1.5.252-2.245.315-.946.113-1.879.177-2.8.24-.177.013-.341.025-.5.025-.908.076-1.778.139-2.636.252-.088.013-.177.025-.252.038a1.96,1.96,0,0,0-.719.265,22.2,22.2,0,0,1-15.928,6.079c-.769,0-1.551-.025-2.346-.088l-3.746-.265,1.665-3.367c.341-.681.681-1.349,1.034-2.018a46.136,46.136,0,0,0,2.03-4.25c.025-.063.063-.164.114-.277-.1-.063-.2-.113-.3-.177a21.851,21.851,0,0,1-11.653-18.526c-.933-13.658,6.961-23.356,21.124-25.929,9.736-1.778,18.1-.782,25.55,3.039a22.158,22.158,0,0,1,12.22,18.8,24.768,24.768,0,0,0-4.136-1.11c-.366-.063-.731-.126-1.085-.177a16.813,16.813,0,0,0-9.294-13.027,30.854,30.854,0,0,0-14.364-3.329,45.1,45.1,0,0,0-8,.757c-11.539,2.106-17.731,9.622-16.987,20.632a16.837,16.837,0,0,0,9.017,14.427c2.989,1.69,3.96,2.989,2.484,6.747-.4,1.034-.883,2.03-1.362,3a16.962,16.962,0,0,0,10.505-4.628,5.806,5.806,0,0,1,2.005-1.185,8.5,8.5,0,0,1,1.791-.441l.681-.076c.87-.1,1.74-.164,2.573-.214.063,0,.113-.013.177-.013a34.669,34.669,0,0,0,4.439-.479C399.963,170.644,405.828,164.59,406.471,155.5Z" transform="translate(-352.534 -128.956)"/></g></g></svg>